<?xml version="1.0" standalone="no"?>
<!DOCTYPE svg PUBLIC "-//W3C//DTD SVG 20010904//EN"
 "http://www.w3.org/TR/2001/REC-SVG-20010904/DTD/svg10.dtd">
<svg version="1.0" xmlns="http://www.w3.org/2000/svg"
 width="300.000000pt" height="300.000000pt" viewBox="0 0 300.000000 300.000000"
 preserveAspectRatio="xMidYMid meet">
<metadata>
Created by potrace 1.11, written by Peter Selinger 2001-2013
</metadata>
<g transform="translate(0.000000,300.000000) scale(0.100000,-0.100000)"
fill="#000000" stroke="none">
<path d="M1300 2924 c-41 -7 -90 -16 -109 -19 -18 -3 -36 -7 -40 -10 -4 -2
-18 -6 -32 -9 -69 -15 -341 -132 -359 -155 -3 -3 -36 -27 -75 -53 -122 -82
-227 -184 -323 -313 -78 -105 -89 -123 -143 -230 -36 -72 -94 -228 -105 -280
-2 -11 -6 -31 -10 -45 -24 -106 -33 -209 -29 -345 4 -146 6 -173 19 -232 4
-15 8 -37 10 -48 2 -11 12 -47 22 -80 10 -33 19 -64 20 -70 1 -5 7 -23 14 -40
6 -16 11 -31 11 -32 0 -2 8 -19 19 -38 11 -20 20 -42 20 -49 0 -8 3 -16 8 -18
4 -2 16 -21 27 -43 16 -34 82 -137 107 -170 50 -64 131 -157 167 -189 25 -23
54 -49 64 -60 86 -83 382 -244 500 -271 9 -2 21 -6 25 -9 9 -5 17 -7 112 -25
30 -6 66 -14 80 -17 42 -10 332 -13 380 -4 25 5 65 11 90 15 73 10 159 34 255
71 95 37 258 120 263 135 2 5 9 9 16 9 8 0 25 12 40 26 14 15 26 24 26 21 0
-6 57 41 103 85 16 16 33 28 38 28 5 0 9 3 9 8 1 4 28 36 61 72 33 36 81 97
107 135 26 39 50 72 53 75 20 15 122 250 148 340 89 302 78 628 -31 912 -16
43 -29 79 -28 80 1 2 -17 36 -39 77 -23 41 -41 78 -41 82 0 5 -4 9 -8 9 -5 0
-15 12 -23 28 -55 106 -255 314 -395 408 -160 110 -381 202 -549 230 -16 3
-41 7 -55 10 -61 12 -348 11 -420 -2z"/>
</g>
</svg>
