<?xml version="1.0" standalone="no"?>
<!DOCTYPE svg PUBLIC "-//W3C//DTD SVG 20010904//EN"
 "http://www.w3.org/TR/2001/REC-SVG-20010904/DTD/svg10.dtd">
<svg version="1.0" xmlns="http://www.w3.org/2000/svg"
 width="300.000000pt" height="300.000000pt" viewBox="0 0 300.000000 300.000000"
 preserveAspectRatio="xMidYMid meet">
<metadata>
Created by potrace 1.11, written by Peter Selinger 2001-2013
</metadata>
<g transform="translate(0.000000,300.000000) scale(0.100000,-0.100000)"
fill="#000000" stroke="none">
<path d="M0 1500 l0 -1500 1500 0 1500 0 0 1500 0 1500 -1500 0 -1500 0 0
-1500z m1108 1414 c71 -50 77 -191 16 -374 -31 -91 -125 -290 -182 -382 -22
-38 -36 -68 -30 -68 5 0 42 17 82 37 97 50 238 193 389 395 65 86 124 162 132
168 43 36 102 -35 92 -109 -3 -20 -50 -146 -104 -281 -55 -135 -106 -268 -114
-295 -10 -39 -14 -130 -14 -400 0 -392 0 -393 -73 -468 -76 -79 -160 -101
-285 -73 -152 34 -404 180 -552 320 l-80 76 -61 -63 c-65 -66 -104 -86 -183
-89 -58 -2 -79 19 -61 63 21 51 58 88 119 119 31 16 71 41 90 57 l34 29 -80
107 c-107 143 -141 206 -127 244 9 26 14 28 61 27 28 -1 95 -17 149 -35 87
-29 112 -33 203 -34 l105 0 34 44 c23 31 32 51 28 65 -29 99 -38 174 -38 291
0 196 38 341 125 472 48 72 127 142 182 161 46 16 118 14 143 -4z m1197 -904
c25 -28 30 -97 11 -161 -8 -30 -83 -173 -166 -319 -82 -146 -165 -293 -183
-328 l-32 -63 25 -21 c37 -31 139 -76 192 -86 53 -10 126 -1 182 22 33 14 42
26 83 113 25 54 96 230 158 391 121 315 156 377 223 396 52 15 65 3 57 -52 -9
-62 -87 -275 -200 -549 -51 -123 -89 -223 -85 -223 21 0 104 43 190 99 100 65
122 71 152 44 68 -61 -86 -198 -314 -278 l-77 -27 -25 -72 c-13 -39 -52 -147
-86 -241 -34 -93 -79 -220 -100 -282 -61 -175 -121 -283 -159 -283 -27 0 -31
32 -21 160 13 151 12 359 0 440 -14 84 -52 163 -96 197 -35 26 -36 26 -102 13
-108 -21 -105 -18 -141 -121 -70 -200 -197 -406 -300 -487 -99 -78 -185 -91
-202 -30 -6 24 7 45 120 185 118 147 236 314 275 391 l17 32 -96 0 c-112 0
-151 13 -189 62 -32 42 -34 99 -7 145 42 68 205 119 360 112 l80 -4 16 35 c10
19 58 129 107 244 49 115 96 223 104 239 9 16 14 31 12 33 -3 2 -72 -28 -155
-66 -149 -69 -275 -110 -339 -110 -20 0 -44 9 -61 24 -23 20 -28 32 -28 68 0
75 73 188 154 240 53 33 72 35 96 8 16 -17 17 -25 7 -59 -19 -61 -18 -61 57
-61 112 0 154 21 344 172 54 43 104 78 111 78 7 0 21 -9 31 -20z"/>
<path d="M907 2691 c-53 -59 -95 -150 -107 -228 -13 -93 9 -311 30 -298 16 10
128 212 155 280 15 38 34 105 41 149 14 79 14 81 -8 103 -13 12 -35 25 -49 28
-21 5 -32 -1 -62 -34z"/>
<path d="M1266 2194 c-128 -117 -308 -219 -406 -231 -37 -4 -53 -12 -65 -29
-8 -13 -25 -32 -37 -44 l-22 -20 61 0 c81 0 115 -13 111 -43 -5 -37 -60 -57
-159 -57 l-87 0 -59 -67 c-93 -108 -133 -160 -133 -176 0 -22 91 -102 151
-132 175 -89 475 -125 558 -66 80 57 99 141 111 491 5 160 15 296 24 344 9 44
15 81 13 82 -1 1 -28 -22 -61 -52z"/>
<path d="M250 1835 c0 -28 120 -195 140 -195 9 0 112 105 118 119 1 5 -22 11
-51 14 -30 3 -87 19 -127 36 -77 33 -80 34 -80 26z"/>
<path d="M1635 1051 c-43 -9 -35 -24 20 -39 52 -15 93 -9 102 14 11 31 -44 42
-122 25z"/>
<path d="M2297 934 c-3 -3 -28 -11 -56 -17 l-51 -12 30 -45 c16 -24 32 -57 36
-73 8 -38 17 -26 44 58 13 39 25 76 28 83 4 12 -19 17 -31 6z"/>
</g>
</svg>
